<svg fill="none" height="40" viewBox="0 0 40 40" width="40" xmlns="http://www.w3.org/2000/svg" xmlns:xlink="http://www.w3.org/1999/xlink"><clipPath id="a"><path d="m0 0h40v40h-40z"/></clipPath><g clip-path="url(#a)"><path d="m16.7 39.8c-9.5-1.7-16.7-9.9-16.7-19.8 0-11 9-20 20-20s20 9 20 20c0 9.9-7.2 18.1-16.7 19.8l-1.1-.9h-4.4z" fill="#1877f2"/><path d="m27.8 25.6.9-5.6h-5.3v-3.9c0-1.6.6-2.8 3-2.8h2.6v-5.10001c-1.4-.2-3-.4-4.4-.4-4.6 0-7.8 2.80001-7.8 7.80001v4.4h-5v5.6h5v14.1c1.1.2 2.2.3 3.3.3s2.2-.1 3.3-.3v-14.1z" fill="#fff"/></g></svg>